<?xml version="1.0" encoding="iso-8859-1"?>
<!-- Generator: Adobe Illustrator 18.0.0, SVG Export Plug-In . SVG Version: 6.00 Build 0)  -->
<!DOCTYPE svg PUBLIC "-//W3C//DTD SVG 1.1//EN" "http://www.w3.org/Graphics/SVG/1.1/DTD/svg11.dtd">
<svg version="1.1" id="Capa_1" xmlns="http://www.w3.org/2000/svg" xmlns:xlink="http://www.w3.org/1999/xlink" x="0px" y="0px"
	 viewBox="0 0 190.692 190.692" style="enable-background:new 0 0 190.692 190.692;" xml:space="preserve">
<g>
	<path style="fill:#1D1D1B;" d="M189.309,53.871c-1.255-1.77-3.216-2.909-5.375-3.123L32.36,35.693L12.974,14.997
		c-2.832-3.022-7.578-3.179-10.601-0.347s-3.178,7.578-0.346,10.601l19.287,20.59v96.48c0,9.22,6.931,16.836,15.853,17.951
		c-0.73,1.593-1.148,3.358-1.148,5.225c0,6.942,5.628,12.57,12.57,12.57s12.57-5.628,12.57-12.57c0-1.805-0.388-3.518-1.073-5.07
		h70.763c-0.685,1.552-1.073,3.264-1.073,5.07c0,6.942,5.628,12.57,12.57,12.57s12.57-5.628,12.57-12.57
		c0-1.805-0.388-3.518-1.073-5.07h6.503c4.142,0,7.5-3.357,7.5-7.5s-3.358-7.5-7.5-7.5H39.419c-1.712,0-3.106-1.394-3.106-3.106
		v-8.51h130.379c3.462,0,6.474-2.369,7.289-5.734l16.5-68.102C190.993,57.868,190.565,55.64,189.309,53.871z M160.793,118.812
		H36.313V51.159l137.56,13.663L160.793,118.812z"/>
</g>
<g>
</g>
<g>
</g>
<g>
</g>
<g>
</g>
<g>
</g>
<g>
</g>
<g>
</g>
<g>
</g>
<g>
</g>
<g>
</g>
<g>
</g>
<g>
</g>
<g>
</g>
<g>
</g>
<g>
</g>
</svg>
